<?xml version="1.0" encoding="UTF-8" standalone="no"?>
<svg
   xmlns:dc="http://purl.org/dc/elements/1.1/"
   xmlns:cc="http://creativecommons.org/ns#"
   xmlns:rdf="http://www.w3.org/1999/02/22-rdf-syntax-ns#"
   xmlns:svg="http://www.w3.org/2000/svg"
   xmlns="http://www.w3.org/2000/svg"
   xmlns:xlink="http://www.w3.org/1999/xlink"
   xmlns:sodipodi="http://sodipodi.sourceforge.net/DTD/sodipodi-0.dtd"
   xmlns:inkscape="http://www.inkscape.org/namespaces/inkscape"
   id="06c42c9d-6d9c-45ee-a61b-17902c1dca73"
   data-name="Layer 1"
   width="1140"
   height="820"
   viewBox="0 0 1140.0001 820.00003"
   version="1.1"
   sodipodi:docname="flatiron-cyber-hero.svg"
   inkscape:version="1.0.2-2 (e86c870879, 2021-01-15)">
  <metadata
     id="metadata178">
    <rdf:RDF>
      <cc:Work
         rdf:about="">
        <dc:format>image/svg+xml</dc:format>
        <dc:type
           rdf:resource="http://purl.org/dc/dcmitype/StillImage" />
        <dc:title>security</dc:title>
      </cc:Work>
    </rdf:RDF>
  </metadata>
  <sodipodi:namedview
     pagecolor="#ffffff"
     bordercolor="#666666"
     borderopacity="1"
     objecttolerance="10"
     gridtolerance="10"
     guidetolerance="10"
     inkscape:pageopacity="0"
     inkscape:pageshadow="2"
     inkscape:window-width="1920"
     inkscape:window-height="1017"
     id="namedview176"
     showgrid="false"
     inkscape:zoom="0.9095909"
     inkscape:cx="568.41454"
     inkscape:cy="395.80019"
     inkscape:window-x="-8"
     inkscape:window-y="-8"
     inkscape:window-maximized="1"
     inkscape:current-layer="06c42c9d-6d9c-45ee-a61b-17902c1dca73"
     inkscape:document-rotation="0" />
  <defs
     id="defs10">
    <linearGradient
       id="2f697947-2a6f-450c-95af-56e5336b1d5f"
       x1="591.29999"
       y1="646.08002"
       x2="591.29999"
       y2="107.75"
       gradientUnits="userSpaceOnUse">
      <stop
         offset="0"
         stop-color="gray"
         stop-opacity="0.25"
         id="stop2" />
      <stop
         offset="0.54"
         stop-color="gray"
         stop-opacity="0.12"
         id="stop4" />
      <stop
         offset="1"
         stop-color="gray"
         stop-opacity="0.1"
         id="stop6" />
    </linearGradient>
    <linearGradient
       id="2563b911-9cd4-457d-b636-acc38b40f33a"
       x1="944.34003"
       y1="854.66998"
       x2="944.34003"
       y2="289.29001"
       xlink:href="#2f697947-2a6f-450c-95af-56e5336b1d5f"
       gradientTransform="translate(-26.97,-40.04)" />
    <linearGradient
       inkscape:collect="always"
       xlink:href="#2f697947-2a6f-450c-95af-56e5336b1d5f"
       id="linearGradient916"
       gradientUnits="userSpaceOnUse"
       x1="591.29999"
       y1="646.08002"
       x2="591.29999"
       y2="107.75" />
  </defs>
  <title
     id="title12">security</title>
  <path
     d="m 1114.5233,551.26347 c -26.57,54.81 -80.52,91.46 -136.42999,115.63 -75.27,32.55 -158.16,45.46 -239.91,40 q -21.49,-1.43 -42.85,-4.57 a 540.44,540.44 0 0 1 -143.27,-41.72 q -19.74,-8.89 -38.68,-19.41 a 494.85,494.85 0 0 1 -60.46,-39.54 q -7.23,-5.52 -14.26,-11.32 c -3.25,-2.68 -6.47,-5.42 -9.74,-8.08 -6.9,-5.61 -14,-10.94 -21.92,-14.93 a 78.31,78.31 0 0 0 -7.34,-3.24 c -25.08,-9.54 -54,-5.94 -80.11,1.5 -19.86,5.66 -39.22,13.41 -59.06,18.94 a 196,196 0 0 1 -26.91,5.72 143.21,143.21 0 0 1 -60.46,-5.31 l -1.67,-0.52 q -4.2,-1.32 -8.33,-2.89 l -1.67,-0.64 q -4,-1.54 -7.83,-3.31 l -1.67,-0.76 q -4,-1.86 -7.83,-3.93 c -0.92,-0.48 -1.83,-1 -2.73,-1.49 a 163.67,163.67 0 0 1 -39.16,-30.49 c -0.33,-0.33 -0.64,-0.67 -1,-1 -1.590002,-1.72 -3.150002,-3.47 -4.660002,-5.26 -0.56,-0.66 -1.12,-1.32 -1.67,-2 q -2.69,-3.28 -5.19,-6.71 c -0.25,-0.33 -0.49,-0.67 -0.73,-1 a 144.59,144.59 0 0 1 -16.86,-30.49 c -0.14,-0.33 -0.27,-0.67 -0.39,-1 q -2,-5.15 -3.65,-10.47 c -0.45,-1.48 -0.88,-3 -1.26,-4.48 -0.13,-0.44 -0.25,-0.89 -0.36,-1.33 -5.52,-21.73 -6.15,-44.32 -6.15,-66.78 q 0,-3.93 0,-7.85 c 0.16,-36.33 0.72,-73.28 6.08,-109.11 0,-0.25 0.07,-0.5 0.11,-0.74 a 340.76,340.76 0 0 1 7.31,-35.82 264.25,264.25 0 0 1 12.31,-36.3 c 12.33,-29 30.260002,-55.39 50.170002,-79.85 50.15,-61.550002 115.92,-113.220002 192.9,-132.5600022 82.95,-20.8299998 175.14,-0.87 242.05,52.4000002 20.4,16.24 38.73,35.47 61.64,47.920002 20,10.84 43.41,15.33 64.83,6.8 17.7,-7.05 29.22,-10.55 49.1,-9.48 a 411.56,411.56 0 0 1 120.36,25.21 c 1.56,0.57 3.12,1.16 4.67,1.75 100.71,38.53 187.27999,115.08 232.27999,213.45 q 1.79,3.9 3.47,7.86 c 26.83,62.67 36.53,136.12 6.93,197.2 z"
     fill="#0466c8"
     opacity="0.1"
     id="path14"
     style="fill:#04cb6c;fill-opacity:1" />
  <ellipse
     cx="107.39331"
     cy="728.85345"
     rx="88.279999"
     ry="14.18"
     fill="#0466c8"
     opacity="0.1"
     id="ellipse16"
     style="fill:#04cb6c;fill-opacity:1" />
  <ellipse
     cx="899.35333"
     cy="804.75348"
     rx="156.53"
     ry="15.2"
     fill="#0466c8"
     opacity="0.1"
     id="ellipse18"
     style="fill:#04cb6c;fill-opacity:1" />
  <rect
     x="103.23331"
     y="107.79346"
     width="950.33002"
     height="538.33002"
     rx="12.49"
     ry="12.49"
     fill="url(#2f697947-2a6f-450c-95af-56e5336b1d5f)"
     id="rect20"
     style="fill:url(#linearGradient916)" />
  <rect
     x="104.74331"
     y="115.36346"
     width="947.41998"
     height="528.96997"
     rx="12.49"
     ry="12.49"
     fill="#ffffff"
     id="rect22" />
  <rect
     x="104.74331"
     y="115.36346"
     width="947.41998"
     height="528.96997"
     rx="12.49"
     ry="12.49"
     fill="#ffffff"
     id="rect24" />
  <rect
     x="104.74331"
     y="115.36346"
     width="947.41998"
     height="528.96997"
     rx="12.49"
     ry="12.49"
     fill="#ffffff"
     opacity="0.04"
     id="rect26" />
  <path
     d="M 1047.3533,109.29347 H 109.55331 a 4.81,4.81 0 0 0 -4.81,4.81 v 20.33 h 947.37999 v -20.33 a 4.81,4.81 0 0 0 -4.77,-4.81 z"
     fill="#5a5773"
     id="path28"
     style="fill:#0063b2;fill-opacity:1" />
  <g
     id="6c975d28-8d47-4ade-9154-b3b78f637b65"
     data-name="buttons"
     transform="translate(-12.906692,0.04346784)">
    <circle
       cx="136.57001"
       cy="121.82"
       r="6.5"
       fill="#ffffff"
       id="circle30" />
    <circle
       cx="154.07001"
       cy="121.82"
       r="6.5"
       fill="#ffffff"
       id="circle32" />
    <circle
       cx="171.57001"
       cy="121.82"
       r="6.5"
       fill="#ffffff"
       id="circle34" />
  </g>
  <rect
     x="182.7733"
     y="181.71347"
     width="254.25"
     height="21.58"
     fill="#0466c8"
     opacity="0.2"
     id="rect37"
     style="fill:#0063b2;fill-opacity:1" />
  <rect
     x="182.7733"
     y="268.24347"
     width="791.35999"
     height="331.95999"
     fill="#5a5773"
     opacity="0.1"
     id="rect39" />
  <path
     d="m 646.12331,287.89347 h -13.55 v -26.32 c 0,-29.7 -23.68,-54.39 -53.38,-54.84 a 54.28,54.28 0 0 0 -54.85,54.11 v 27.05 h -13.52 a 22.62,22.62 0 0 0 -22.55,22.55 v 108.22 a 22.62,22.62 0 0 0 22.55,22.55 h 135.3 a 22.61,22.61 0 0 0 22.54,-22.55 v -108.22 a 22.61,22.61 0 0 0 -22.54,-22.55 z m -59.75,70.35 v 38.76 a 8.09,8.09 0 0 1 -7.5,8.12 7.91,7.91 0 0 1 -8.28,-7.9 v -39 a 18,18 0 1 1 15.78,0 z m 30.44,-70.35 h -76.69 v -27.05 a 38.33,38.33 0 0 1 76.66,0 z"
     fill="#0466c8"
     id="path43"
     style="fill:#0063b2;fill-opacity:1" />
  <rect
     x="894.03333"
     y="236.29347"
     width="80.099998"
     height="18.91"
     fill="#5a5773"
     opacity="0.1"
     id="rect45" />
  <path
     d="m 1001.3933,809.33347 a 28.47,28.47 0 0 0 -2.67999,-7.61 l -12,-17.92 h 0.07 c 0,0 -1.89,-9 0,-13.42 1.89,-4.42 -6.74,-15.29 -6.74,-15.29 0,0 -1.05,-2.73 1.69,-6.09 2.74,-3.36 -1.69,-13.2 -1.69,-13.2 0,0 -2.1,-20.55 -2.31,-23.69 -0.21,-3.14 -1.9,-20.54 -1.9,-20.54 l -4,-36.89 -7.12,-97.77 -0.13,-1.83 c 0.88,-0.43 1.35,-0.7 1.35,-0.7 l -1.42,-54.06 1.23,-1.11 c 10.74,-9.72 35.50999,-32.22 35.25999,-32.71 -0.25,-0.49 -2.99999,-37.57 -3.31999,-46.85 a 55.83,55.83 0 0 0 -4.26,-19.18 c -0.62,-1.23 -2.41,-9.34 -3.15,-12.77 -0.2,-0.94 -0.33,-1.53 -0.33,-1.53 0,0 -7.26,-13.84 -6.63,-20.13 0.63,-6.29 1.89,-11 -13.59,-13.2 0,0 -13,-1.94 -20.74,-7.23 a 59,59 0 0 0 -14.86,-7.44 c 0,0 -4.34,-8 -7.36,-5.29 a 42,42 0 0 1 -2.85,-8.91 l -0.09,-0.56 a 29.47,29.47 0 0 0 11.64,-16.66 c 0.1,-0.38 0.18,-0.77 0.27,-1.15 a 3.25,3.25 0 0 0 0.93,0.17 c 2.63,0 4.25,-2.93 6.71,-3.86 1,-0.39 2.23,-0.45 3,-1.24 a 2.93,2.93 0 0 0 0.66,-2.21 4.51,4.51 0 0 0 0,-0.82 2.93,2.93 0 0 0 0,-0.29 v 0.1 c -0.67,-3.64 -3.49,-6.87 -3.18,-10.57 0.3,-3.48 3.36,-6.54 3.11,-9.93 a 5.4,5.4 0 0 0 -0.07,-0.8 v 0.12 a 8.56,8.56 0 0 0 -2,-3.54 11.36,11.36 0 0 0 -4.12,-3.46 c -1.39,-0.61 -3,-0.75 -4.3,-1.48 -3.82,-2.08 -3.81,-7.5 -6.08,-11.2 a 9.91,9.91 0 0 0 -9.27,-4.59 c -2.84,0.28 -5.41,1.79 -8.22,2.28 -3.84,0.68 -7.75,-0.57 -11.39,-2 -3.64,-1.43 -7.33,-3 -11.24,-3 -3.91,0 -8.14,2 -9.32,5.69 -0.63,2 -0.32,4.15 -0.8,6.18 -0.86,3.58 -4,6.14 -7.25,7.92 -2,1.11 -4.38,2.38 -5,4.48 0,-0.06 0,-0.11 0,-0.16 a 3.84,3.84 0 0 0 -0.1,0.51 3.75,3.75 0 0 0 0,0.67 c 0,1.44 0.76,2.81 1.27,4.18 a 11.53,11.53 0 0 1 -0.06,8.06 c -0.74,1.9 -2,3.57 -2.72,5.46 a 10.75,10.75 0 0 0 -0.66,2.74 v -0.16 a 11,11 0 0 0 0,1.28 9,9 0 0 0 1,4.2 7.54,7.54 0 0 0 4.49,3.77 c 2,0.46 3.25,-1.5 5.36,-1 a 8.42,8.42 0 0 1 1.11,0.35 c 0.07,0.45 0.14,0.9 0.22,1.34 a 29.39,29.39 0 0 0 10.14,17.17 c 0,0.24 0.08,0.48 0.11,0.73 v 0 a 67.15,67.15 0 0 1 0.83,12.06 c 0,0 -3.15,-4.61 -7.47,4.29 0,0 -11.27,6.5 -15.16,7.24 -3.89,0.74 -17.7,5.55 -17.7,5.55 a 12.18,12.18 0 0 1 -7.16,2.31 c -4.31,0 -7.89,9.43 -7.37,14.56 0.52,5.13 -0.31,8.91 -4.32,9.12 -4.01,0.21 -1.82,8.34 -1.79,8.48 l -0.37,1.75 c -0.78,3.58 -2.48,11.26 -3.08,12.46 a 56,56 0 0 0 -4.27,19.18 c -0.31,9.28 -3,46.22 -3.31,46.85 -0.21,0.41 16.76,15.92 28.69,26.76 l 1.73,1.56 -5.49,51.28 a 13.69,13.69 0 0 0 5.64,10 c 0,0.6 0,1.21 -0.06,1.84 -0.24,6 -0.72,13.26 -1.68,15.16 -1.68,3.36 -1.26,21.38 -1.26,21.38 0,0 -1.69,36.68 -3.79,40.67 -2.1,3.99 -2.53,12.36 -1.9,14 0.63,1.64 -2.11,45.69 -2.11,45.69 l -2.1,19.71 c 0,0 0.63,18.86 -1.27,19.28 -1.9,0.42 -2.95,13.42 -2.95,13.42 0,0 -6.73,9.22 -3.79,12.57 2.94,3.35 -0.43,4.83 -0.74,5.66 -0.31,0.83 -6.42,4 -2,15.72 a 3.45,3.45 0 0 0 0.14,0.34 c -4.14,5.75 -17.26,24.3 -16.46,27.12 a 7.43,7.43 0 0 0 3.5,4.2 c 3.09,1.85 8.39,2.71 16.82,0 14,-4.51 13,-7.76 13,-7.76 a 5.94,5.94 0 0 1 5.9,-5.66 c 5.79,-0.42 10.11,-5.76 10.11,-5.76 l -0.68,-2.53 -0.93,-3.5 c 0.11,-1 0.82,-2.75 4,-3.72 4.85,-1.47 3.58,-10.69 3.58,-10.69 0,0 -0.42,-9.64 1.68,-10.9 2.1,-1.26 1.27,-17.19 1.27,-17.19 0,0 2.32,-11.53 5.68,-19.29 3.36,-7.76 7.38,-53.86 7.38,-53.86 0,0 2.73,-22.64 5.26,-29.14 2.53,-6.5 4.85,-24.73 4.85,-24.73 0,0 15.59,-30.19 15.79,-36.9 0,0 2,-6.29 4,0.63 2,6.92 7.62,23.48 7.62,23.48 l 5.47,20.33 6.53,30.39 4.22,25.58 c 0,0 -0.64,9.64 1,13 1.64,3.36 4,11.1 2.74,12.57 -1.26,1.47 2.52,8.39 3.58,9.85 1.06,1.46 0,32.49 0,32.49 0,0 4.84,26.41 11.79,31 a 8.5,8.5 0 0 0 1.54,0.8 c -0.1,2.86 -0.2,6.69 -0.07,8.69 a 3.33,3.33 0 0 0 0.22,1.31 c 0.63,0.84 7.79,6.5 9.27,6.5 1.48,0 6.73,3.67 6.95,5.45 0.22,1.78 15.39,9.32 17.54,9.54 2.15,0.22 12.57,2.09 13.99999,-0.84 a 4.85,4.85 0 0 0 0.29,-2.71 z m -37.26999,-377.72 1.08,0.93 c 0,0 1.11,8.65 1.9,11.24 0.79,2.59 -0.16,7.63 -0.16,7.63 a 17.55,17.55 0 0 0 1.11,5.5 c 0.94,1.89 -1.9,6 -1.9,6 h -2.53 l -0.79,-32.38 z m -75.23,-96.68 v -0.19 c -0.02,0.06 -0.03,0.13 -0.03,0.19 z m -38.85,124.65 a 3.65,3.65 0 0 1 -0.16,-2.67 8,8 0 0 0 0.53,-1.48 22.92,22.92 0 0 0 0.58,-4 0.28,0.28 0 0 0 0,-0.05 c -0.09,-0.48 -0.9,-5.12 -0.15,-7.58 0.75,-2.46 1.89,-11.24 1.89,-11.24 l 0.72,-0.61 1.67,-1.45 c 0,0 0,-0.54 0.12,-1.43 0.35,7.6 0.63,16 0.18,16.42 -0.84,0.83 -3.9,9 -3.16,9.32 0.24,0.11 -0.09,3.38 -0.65,7.78 a 15.94,15.94 0 0 1 -1.57,-3.01 z"
     fill="url(#2563b911-9cd4-457d-b636-acc38b40f33a)"
     id="path47"
     style="fill:url(#2563b911-9cd4-457d-b636-acc38b40f33a)" />
  <path
     d="m 930.64331,342.92347 v 12.44 l -25.52,12.83 c 0,0 -25.34,-15.33 -19.09,-21.43 4,-3.86 3.23,-14.46 2.15,-21.75 v 0 c -0.63,-4.24 -1.36,-7.35 -1.36,-7.35 0,0 45.52,-13 38.64,-3.13 -2.3,3.3 -2.48,7.57 -1.71,11.8 1.56,8.39 6.89,16.59 6.89,16.59 z"
     fill="#c37098"
     id="path49" />
  <path
     d="m 860.73331,464.57347 -3.29,40.52 c 0,0 -4.93,-4.47 -11.31,-10.29 -11.83,-10.79 -28.63,-26.22 -28.43,-26.63 0.31,-0.63 3,-37.39 3.29,-46.63 a 55.8,55.8 0 0 1 4.22,-19.08 c 0.6,-1.2 2.29,-8.84 3,-12.41 0.24,-1.11 0.39,-1.83 0.39,-1.83 l 5.52,-2.22 c 0,0 23,25.66 23,26.13 0,0.47 -1.57,20.18 -1.57,20.18 l -1.63,1.42 -0.71,0.61 c 0,0 -1.1,8.61 -1.88,11.19 -0.78,2.58 0.06,7.06 0.15,7.54 v 0 a 23.25,23.25 0 0 1 -0.57,4 8.38,8.38 0 0 1 -0.53,1.47 3.67,3.67 0 0 0 0.16,2.66 16.08,16.08 0 0 0 1.72,3.29 z"
     fill="#3f3d56"
     id="path51" />
  <path
     d="m 1000.1233,468.17347 c 0.24,0.49 -24.28999,22.88 -34.91999,32.55 l -4.82,4.37 -3.26,-40.52 h 8.45 c 0,0 2.82,-4.07 1.88,-5.95 a 17.39,17.39 0 0 1 -1.09,-5.47 c 0,0 0.93,-5 0.15,-7.59 -0.78,-2.59 -1.88,-11.19 -1.88,-11.19 l -1.07,-0.92 -1.27,-1.11 c 0,0 -1.57,-19.71 -1.57,-20.18 0,-0.47 23,-26.13 23,-26.13 l 5.48,2.19 c 0,0 0.12,0.59 0.32,1.53 0.74,3.41 2.51,11.48 3.12,12.71 a 55.8,55.8 0 0 1 4.22,19.08 c 0.26,9.24 2.94,46 3.25999,46.63 z"
     fill="#3f3d56"
     id="path53" />
  <path
     d="m 1000.2233,812.11347 c -1.46999,2.92 -11.78999,1 -13.91999,0.84 -2.13,-0.16 -17.17,-7.73 -17.38,-9.5 -0.21,-1.77 -5.42,-5.42 -6.88,-5.42 -1.46,0 -8.55,-5.64 -9.18,-6.47 a 3.19,3.19 0 0 1 -0.21,-1.3 c -0.22,-3.43 0.21,-12.26 0.21,-12.26 l 30.25,1.67 14.7,22.11 a 28.52,28.52 0 0 1 2.65999,7.57 5,5 0 0 1 -0.25,2.76 z"
     fill="#3f3d56"
     id="path55" />
  <path
     d="m 1000.2233,812.11347 c -1.46999,2.92 -11.78999,1 -13.91999,0.84 -2.13,-0.16 -17.17,-7.73 -17.38,-9.5 -0.21,-1.77 -5.42,-5.42 -6.88,-5.42 -1.46,0 -8.55,-5.64 -9.18,-6.47 a 3.19,3.19 0 0 1 -0.21,-1.3 c -0.22,-3.43 0.21,-12.26 0.21,-12.26 l 30.25,1.67 14.7,22.11 a 28.52,28.52 0 0 1 2.65999,7.57 5,5 0 0 1 -0.25,2.76 z"
     opacity="0.1"
     id="path57" />
  <path
     d="m 1000.2233,812.11347 c -1.46999,2.92 -11.78999,1 -13.91999,0.84 -2.13,-0.16 -17.17,-7.73 -17.38,-9.5 -0.21,-1.77 -5.42,-5.42 -6.88,-5.42 -1.46,0 -8.55,-5.64 -9.18,-6.47 a 3.19,3.19 0 0 1 -0.21,-1.3 l 9.8,6.2 c 0,0 6.26,4 7.93,6.37 1.67,2.37 14.83,7.3 15.92,7.4 0.81,0.08 9.45,-1.58 14.16999,-0.88 a 5,5 0 0 1 -0.25,2.76 z"
     opacity="0.1"
     id="path59" />
  <path
     d="m 857.22331,793.86347 c 0,0 -4.28,5.32 -10,5.73 a 5.89,5.89 0 0 0 -5.84,5.63 c 0,0 1,3.24 -12.83,7.73 -8.35,2.69 -13.6,1.84 -16.66,0 a 7.44,7.44 0 0 1 -3.47,-4.18 c -0.94,-3.33 17.52,-28.68 17.52,-28.68 l 16.8,-1 12,5.42 1.84,6.87 z"
     fill="#3f3d56"
     id="path61" />
  <path
     d="m 857.22331,793.86347 c 0,0 -4.28,5.32 -10,5.73 a 5.89,5.89 0 0 0 -5.84,5.63 c 0,0 1,3.24 -12.83,7.73 -8.35,2.69 -13.6,1.84 -16.66,0 a 7.44,7.44 0 0 1 -3.47,-4.18 c -0.94,-3.33 17.52,-28.68 17.52,-28.68 l 16.8,-1 12,5.42 1.84,6.87 z"
     opacity="0.1"
     id="path63" />
  <path
     d="m 857.22331,793.86347 c 0,0 -4.28,5.32 -10,5.73 a 5.89,5.89 0 0 0 -5.84,5.63 c 0,0 1,3.24 -12.83,7.73 -8.35,2.69 -13.6,1.84 -16.66,0 7.87,-0.82 25.26,-5.79 27,-7.51 2.09,-2.09 4.7,-7.83 6.47,-7.93 1.23,-0.08 7.48,-3.84 11.23,-6.17 z"
     fill="none"
     id="path65" />
  <path
     d="m 857.22331,793.86347 c 0,0 -4.28,5.32 -10,5.73 a 5.89,5.89 0 0 0 -5.84,5.63 c 0,0 1,3.24 -12.83,7.73 -8.35,2.69 -13.6,1.84 -16.66,0 7.87,-0.82 25.26,-5.79 27,-7.51 2.09,-2.09 4.7,-7.83 6.47,-7.93 1.23,-0.08 7.48,-3.84 11.23,-6.17 z"
     opacity="0.1"
     id="path67" />
  <path
     d="m 986.03331,770.60347 c -1.88,4.38 0,13.35 0,13.35 0,0 -28,1.46 -34.84,-3.13 -6.84,-4.59 -11.68,-30.88 -11.68,-30.88 0,0 1,-30.87 0,-32.33 -1,-1.46 -4.8,-8.34 -3.55,-9.8 1.25,-1.46 -1,-9.18 -2.71,-12.52 -1.71,-3.34 -1,-12.93 -1,-12.93 l -4.18,-25.46 -6.46,-30.24 -5.49,-20.24 c 0,0 -5.63,-16.48 -7.54,-23.36 -1.91,-6.88 -3.93,-0.63 -3.93,-0.63 -0.2,6.68 -15.64,36.72 -15.64,36.72 0,0 -2.3,18.15 -4.8,24.61 -2.5,6.46 -5.22,29 -5.22,29 0,0 -4,45.89 -7.3,53.61 -3.3,7.72 -5.57,19.19 -5.57,19.19 0,0 0.84,15.86 -1.25,17.11 -2.09,1.25 -1.75,10.85 -1.75,10.85 0,0 1.25,9.17 -3.55,10.64 -4.8,1.47 -4,4.59 -4,4.59 0,0 -26.7,4.38 -31.08,-7.31 -4.38,-11.69 1.67,-14.8 2,-15.64 0.33,-0.84 3.66,-2.29 0.74,-5.64 -2.92,-3.35 3.75,-12.51 3.75,-12.51 0,0 1.05,-12.93 2.92,-13.35 1.87,-0.42 1.26,-19.19 1.26,-19.19 l 2.08,-19.61 c 0,0 2.72,-43.81 2.09,-45.48 -0.63,-1.67 -0.21,-10 1.88,-14 2.09,-4 3.75,-40.48 3.75,-40.48 0,0 -0.42,-17.93 1.25,-21.27 1,-1.89 1.42,-9.16 1.66,-15.09 0.18,-4.53 0.22,-8.28 0.22,-8.28 l 23.36,-8.76 30,-9.59 25.24,12.1 36.93,7.09 0.46,6.37 7.05,97.31 4,36.71 c 0,0 1.67,17.31 1.88,20.44 0.21,3.13 2.29,23.58 2.29,23.58 0,0 4.38,9.8 1.67,13.14 -2.71,3.34 -1.67,6 -1.67,6 0,0 8.61,10.93 6.73,15.31 z"
     fill="#3f3d56"
     id="path69" />
  <path
     d="m 925.48331,314.53347 c -2.3,3.3 -2.48,7.57 -1.71,11.8 a 29.34,29.34 0 0 1 -35.57,-1.33 v 0 c -0.63,-4.24 -1.36,-7.35 -1.36,-7.35 0,0 45.52,-12.98 38.64,-3.12 z"
     opacity="0.1"
     id="path71" />
  <path
     d="m 936.12331,301.77347 a 29.3,29.3 0 1 1 -29.3,-29.3 29.16,29.16 0 0 1 29.3,29.3 z"
     fill="#c37098"
     id="path73" />
  <polygon
     points="900.98,350.88 914.56,352.61 928.01,353.44 942.59,351.82 955.13,350.42 945.53,521.37 893.38,510.42 883.05,441.89 893.28,349.89 "
     opacity="0.1"
     id="polygon75"
     transform="translate(-12.906692,0.04346784)" />
  <polygon
     points="900.98,352.13 914.56,353.86 928.01,354.69 942.59,353.07 955.13,351.67 945.53,522.62 893.38,511.67 883.05,443.14 893.28,351.15 "
     fill="#0466c8"
     id="polygon77"
     style="fill:#0063b2;fill-opacity:1"
     transform="translate(-12.906692,0.04346784)" />
  <path
     d="m 899.35331,356.30347 18.78,0.63 -5.28,7.39 c 0,0 0.37,14.93 2.88,19.21 2.51,4.28 1.77,70.4 1.77,70.4 l -5,9.49 -8.55,-10.64 0.11,-87.3 z"
     fill="#3f3d56"
     id="path79" />
  <path
     d="m 899.35331,356.30347 18.78,0.63 -5.28,7.39 c 0,0 0.37,14.93 2.88,19.21 2.51,4.28 1.77,70.4 1.77,70.4 l -5,9.49 -8.55,-10.64 0.11,-87.3 z"
     opacity="0.1"
     id="path81" />
  <polygon
     points="924.15,356.26 934.16,366.69 950.75,350.52 941.67,336.86 "
     opacity="0.1"
     id="polygon83"
     transform="translate(-12.906692,0.04346784)" />
  <polygon
     points="924.15,355.01 934.16,365.44 950.75,349.27 941.67,335.61 "
     fill="#0466c8"
     id="polygon85"
     style="fill:#0063b2;fill-opacity:1"
     transform="translate(-12.906692,0.04346784)" />
  <polygon
     points="899.01,337.59 897.34,346.87 905.48,367.21 916.75,355.32 "
     opacity="0.1"
     id="polygon87"
     transform="translate(-12.906692,0.04346784)" />
  <polygon
     points="899.64,336.34 897.97,345.62 906.11,365.96 917.37,354.07 "
     fill="#0466c8"
     id="polygon89"
     style="fill:#0063b2;fill-opacity:1"
     transform="translate(-12.906692,0.04346784)" />
  <path
     d="m 964.17331,558.14347 a 86.57,86.57 0 0 1 -27,7.81 c -17.21,2.19 -28.47,-19.71 -28.47,-19.71 l -6.57,8.55 c -2.09,9.08 -33.9,11.37 -46.83,7.93 a 20.69,20.69 0 0 1 -7.42,-3.51 c 0.18,-4.53 0.22,-8.28 0.22,-8.28 l 23.36,-8.76 30,-9.59 25.24,12.1 36.93,7.09 z"
     opacity="0.1"
     id="path91" />
  <path
     d="m 942.22331,351.72347 -9.59,170.94 -52.16,-10.95 -10.35,-68.52 10.22,-92 7.7,1 a 93.48,93.48 0 0 1 -1.13,10 c -1.25,5.85 6.47,47.36 6.47,47.36 0,0 14.67,46.55 21.27,39.84 6.6,-6.71 16,-42.14 16,-42.14 6.37,-13.14 0.11,-50 -0.36,-50.74 a 14.88,14.88 0 0 1 -0.6,-3.35 z"
     opacity="0.1"
     id="path93" />
  <path
     d="m 964.75331,484.00347 0.44,16.75 -4.82,4.37 -3.25,-40.55 h 7.2 z"
     opacity="0.1"
     id="path95" />
  <path
     d="m 851.49331,453.10347 v 0 a 23.25,23.25 0 0 1 -0.57,4 c 0,-0.37 0,-0.58 -0.08,-0.61 -0.3,-0.08 0.06,-1.61 0.65,-3.39 z"
     opacity="0.1"
     id="path97" />
  <path
     d="m 860.73331,464.57347 -3.29,40.52 c 0,0 -4.93,-4.47 -11.31,-10.29 l 0.76,-7.18 c 0,0 2.69,-17.64 3.67,-26.34 a 16.08,16.08 0 0 0 1.72,3.29 z"
     opacity="0.1"
     id="path99" />
  <path
     d="m 889.02331,337.00347 c 0,0 -3.12,-4.59 -7.4,4.27 0,0 -11.16,6.47 -15,7.2 -3.84,0.73 -17.5,5.53 -17.5,5.53 a 12.08,12.08 0 0 1 -7.09,2.29 c -4.28,0 -7.83,9.39 -7.31,14.5 0.52,5.11 -0.31,8.87 -4.27,9.08 -3.96,0.21 -1.78,8.44 -1.78,8.44 l 26.39,30.25 c 0,0 1.67,27.85 0.84,28.69 -0.83,0.84 -3.86,9 -3.13,9.28 0.73,0.28 -4,31.08 -4,31.08 l -6.36,59.77 c 0,0 0,10 12.94,13.45 12.94,3.45 44.77,1.17 46.82,-7.91 l 6.57,-8.56 c 0,0 11.26,21.91 28.47,19.72 17.21,-2.19 28.17,-8.45 28.17,-8.45 l -1.88,-71.63 -1.25,-51.63 26.87,-44.15 c 0,0 -7.2,-13.77 -6.57,-20 0.63,-6.23 1.87,-10.95 -13.46,-13.14 0,0 -12.93,-1.93 -20.55,-7.2 a 58.74,58.74 0 0 0 -14.7,-7.4 c 0,0 -4.3,-8 -7.29,-5.26 0,0 3,11.31 2.75,13 -0.25,1.69 0.47,9.33 0.94,10.12 0.47,0.79 6.73,37.6 0.36,50.74 0,0 -9.35,35.43 -16,42.14 -6.65,6.71 -21.27,-39.84 -21.27,-39.84 0,0 -7.72,-41.52 -6.47,-47.36 1.25,-5.84 2.16,-27.02 2.16,-27.02 z"
     fill="#3f3d56"
     id="path101" />
  <circle
     cx="911.34332"
     cy="469.16345"
     r="4.5900002"
     fill="#3f3d56"
     id="circle103" />
  <circle
     cx="911.34332"
     cy="490.80347"
     r="4.5900002"
     fill="#3f3d56"
     id="circle105" />
  <circle
     cx="911.34332"
     cy="469.16345"
     r="4.5900002"
     opacity="0.1"
     id="circle107" />
  <circle
     cx="911.34332"
     cy="490.80347"
     r="4.5900002"
     opacity="0.1"
     id="circle109" />
  <path
     d="m 952.59331,764.34347 c 0,0 18.84,1.46 20.71,2.92 1.87,1.46 -20.71,-2.92 -20.71,-2.92 z"
     stroke="#0466c8"
     stroke-miterlimit="10"
     opacity="0.1"
     id="path111" />
  <path
     d="m 840.42331,749.53347 c 0,0 4,5 2.3,7.3 -1.7,2.3 -2.3,-7.3 -2.3,-7.3 z"
     stroke="#0466c8"
     stroke-miterlimit="10"
     opacity="0.1"
     id="path113" />
  <path
     d="m 845.22331,767.56347 c 0,0 7.3,-4.8 10.22,-1.61 2.92,3.19 -10.22,1.61 -10.22,1.61 z"
     stroke="#0466c8"
     stroke-miterlimit="10"
     opacity="0.1"
     id="path115" />
  <path
     d="m 936.12331,301.77347 a 29.16,29.16 0 0 1 -0.94,7.41 3.33,3.33 0 0 1 -1.94,-3.26 c 0.13,-1.19 0.92,-2.28 0.75,-3.46 -0.25,-1.82 -2.45,-2.56 -3.61,-4 -1.43,-1.74 -1.12,-4.27 -1,-6.52 0.12,-2.25 -0.45,-5 -2.56,-5.77 -0.63,-0.23 -1.32,-0.25 -1.93,-0.51 -1.66,-0.7 -2.17,-2.76 -3.28,-4.18 -2.22,-2.86 -6.63,-2.8 -10,-1.44 a 47.53,47.53 0 0 1 -4.5,1.88 5.88,5.88 0 0 1 -4.71,-0.35 c -0.66,-0.42 -1.19,-1 -1.87,-1.42 -2.26,-1.36 -5.22,0 -7.18,1.75 -1.96,1.75 -3.53,4.1 -6,5.17 -1.11,0.5 -2.48,0.8 -3,1.88 a 3.94,3.94 0 0 0 -0.32,1.87 c 0,3.89 0.46,7.84 -0.35,11.65 -0.52,2.45 -2.24,5.23 -4.73,4.93 a 4.67,4.67 0 0 1 -0.91,-0.23 29.3,29.3 0 1 1 58.1,-5.42 z"
     opacity="0.1"
     id="path117" />
  <path
     d="m 876.73331,305.51347 c 0.75,0.17 1.46,0.56 2.23,0.66 2.49,0.3 4.21,-2.48 4.73,-4.93 0.81,-3.81 0.39,-7.76 0.36,-11.65 a 3.81,3.81 0 0 1 0.31,-1.87 c 0.57,-1.08 1.94,-1.38 3,-1.88 2.42,-1.08 4,-3.38 6,-5.17 2,-1.79 4.91,-3.11 7.17,-1.75 0.67,0.4 1.21,1 1.87,1.42 a 6,6 0 0 0 4.72,0.35 c 1.55,-0.46 3,-1.27 4.49,-1.88 3.34,-1.36 7.76,-1.41 10,1.43 1.11,1.43 1.62,3.48 3.28,4.18 0.61,0.26 1.3,0.29 1.93,0.52 2.11,0.79 2.65,3.52 2.56,5.77 -0.09,2.25 -0.39,4.78 1,6.52 1.16,1.42 3.36,2.16 3.61,4 0.16,1.18 -0.62,2.28 -0.75,3.46 a 3.32,3.32 0 0 0 3.13,3.54 c 2.6,0 4.21,-2.91 6.64,-3.84 1,-0.39 2.21,-0.45 3,-1.24 a 3.31,3.31 0 0 0 0.62,-2.71 c -0.49,-3.83 -3.56,-7.16 -3.23,-11 0.31,-3.68 3.72,-6.89 3,-10.51 a 8.52,8.52 0 0 0 -2,-3.57 11.56,11.56 0 0 0 -4.08,-3.45 c -1.39,-0.6 -3,-0.74 -4.27,-1.47 -3.78,-2.07 -3.77,-7.47 -6,-11.15 a 9.79,9.79 0 0 0 -9.12,-4.54 c -2.81,0.28 -5.36,1.77 -8.14,2.27 -3.81,0.68 -7.67,-0.57 -11.28,-2 -3.61,-1.43 -7.26,-3 -11.13,-3 -3.87,0 -8.06,2 -9.24,5.66 -0.62,2 -0.31,4.14 -0.79,6.15 -0.84,3.57 -4,6.11 -7.18,7.88 -2.19,1.22 -4.82,2.62 -5.08,5.11 -0.17,1.58 0.7,3 1.25,4.53 a 11.53,11.53 0 0 1 -0.06,8 c -0.73,1.89 -1.95,3.55 -2.69,5.43 a 9.75,9.75 0 0 0 0.26,8 7.46,7.46 0 0 0 4.57,3.75 c 1.97,0.47 3.21,-1.48 5.31,-1.02 z"
     fill="#3f3d56"
     id="path119" />
  <g
     opacity="0.1"
     id="g133"
     transform="translate(-12.906692,0.04346784)">
    <path
       d="m 923.57,339.06 c -0.52,2.45 -2.25,5.23 -4.74,4.93 -0.77,-0.1 -1.47,-0.49 -2.23,-0.66 -2.09,-0.46 -3.33,1.5 -5.3,1 a 7.48,7.48 0 0 1 -4.58,-3.75 8.66,8.66 0 0 1 -0.93,-3.27 9.13,9.13 0 0 0 0.93,5.15 7.48,7.48 0 0 0 4.58,3.75 c 2,0.46 3.21,-1.5 5.3,-1 a 22.61,22.61 0 0 0 2.23,0.65 c 2.49,0.31 4.22,-2.47 4.74,-4.92 a 28.89,28.89 0 0 0 0.48,-6.57 24.63,24.63 0 0 1 -0.48,4.69 z"
       transform="translate(-26.97,-40.04)"
       id="path121" />
    <path
       d="m 909.87,324 a 11.51,11.51 0 0 0 -0.66,-4.83 25.53,25.53 0 0 1 -1.15,-3.16 4.59,4.59 0 0 0 -0.1,0.51 c -0.17,1.57 0.71,3 1.25,4.53 a 11.47,11.47 0 0 1 0.66,2.95 z"
       transform="translate(-26.97,-40.04)"
       id="path123" />
    <path
       d="m 986.27,318.73 c -0.47,2.84 -2.77,5.51 -3,8.5 a 7.15,7.15 0 0 0 0,1.54 c 0.5,-3.49 3.59,-6.58 3,-10.04 z"
       transform="translate(-26.97,-40.04)"
       id="path125" />
    <path
       d="m 986.44,339.83 a 2.35,2.35 0 0 1 -0.57,1.12 c -0.74,0.79 -2,0.85 -3,1.24 -2.43,0.93 -4,3.87 -6.64,3.84 a 3.35,3.35 0 0 1 -3,-2.32 5.18,5.18 0 0 0 -0.14,0.66 3.32,3.32 0 0 0 3.13,3.53 c 2.61,0 4.21,-2.91 6.64,-3.83 1,-0.39 2.22,-0.45 3,-1.24 a 3.31,3.31 0 0 0 0.62,-2.71 c -0.01,-0.12 -0.03,-0.2 -0.04,-0.29 z"
       transform="translate(-26.97,-40.04)"
       id="path127" />
    <path
       d="m 973.9,339 c -0.25,-1.82 -2.45,-2.56 -3.61,-4 a 5.48,5.48 0 0 1 -1.1,-3.28 c -0.08,1.86 -0.05,3.76 1.1,5.16 1.15,1.4 2.9,2 3.46,3.44 A 3.21,3.21 0 0 0 973.9,339 Z"
       transform="translate(-26.97,-40.04)"
       id="path129" />
    <path
       d="m 969.25,328.53 c 0.08,-2.25 -0.46,-5 -2.57,-5.77 -0.62,-0.23 -1.31,-0.26 -1.92,-0.51 -1.66,-0.7 -2.18,-2.76 -3.28,-4.18 -2.23,-2.85 -6.64,-2.8 -10,-1.44 -1.5,0.61 -2.93,1.42 -4.49,1.88 a 5.88,5.88 0 0 1 -4.71,-0.35 c -0.66,-0.42 -1.2,-1 -1.87,-1.42 -2.27,-1.36 -5.23,0 -7.18,1.75 -1.95,1.75 -3.53,4.09 -6,5.17 -1.12,0.5 -2.48,0.8 -3.06,1.88 a 3.93,3.93 0 0 0 -0.31,1.87 c 0,0.39 0,0.78 0,1.17 a 2.84,2.84 0 0 1 0.29,-1.16 c 0.58,-1.08 1.94,-1.38 3.06,-1.88 2.42,-1.08 4,-3.38 6,-5.17 2,-1.79 4.91,-3.11 7.18,-1.75 0.67,0.4 1.21,1 1.87,1.41 a 5.84,5.84 0 0 0 4.71,0.35 46.21,46.21 0 0 0 4.49,-1.87 c 3.35,-1.36 7.76,-1.42 10,1.43 1.1,1.42 1.62,3.48 3.28,4.18 0.61,0.26 1.3,0.29 1.92,0.52 1.71,0.64 2.39,2.56 2.54,4.46 z"
       transform="translate(-26.97,-40.04)"
       id="path131" />
  </g>
  <g
     opacity="0.1"
     id="g143"
     transform="translate(-12.906692,0.04346784)">
    <path
       d="m 920,339 a 7.67,7.67 0 0 1 5.78,-7.17 24,24 0 0 1 13.48,0.61 c 9.49,3.14 -1.2,14.44 -1.2,14.44 0,0 -7.11,7 -13.74,2.11 a 10.39,10.39 0 0 1 -3.87,-6 A 15.3,15.3 0 0 1 920,339 Z"
       transform="translate(-26.97,-40.04)"
       id="path135" />
    <path
       d="m 972.17,339 a 7.67,7.67 0 0 0 -5.79,-7.17 24,24 0 0 0 -13.47,0.61 c -9.49,3.14 1.2,14.44 1.2,14.44 0,0 7.1,7 13.74,2.11 a 10.39,10.39 0 0 0 3.87,-6 15.3,15.3 0 0 0 0.45,-3.99 z"
       transform="translate(-26.97,-40.04)"
       id="path137" />
    <polygon
       points="910.5,291.95 927.83,291.95 927.83,291.39 910.5,291.48 "
       id="polygon139" />
    <path
       d="m 943,336.53 h 0.55 v -1.59 c 0,0 1.76,-1.37 4.68,0 v 1.42 h 1 v -0.93 h -0.49 c 0,0 0.2,-1.93 -3.06,-1.62 0,0 -2.62,-0.25 -2.56,1.41 h -0.6 z"
       transform="translate(-26.97,-40.04)"
       id="path141" />
  </g>
  <path
     d="m 880.12331,298.35347 a 7.67,7.67 0 0 1 5.78,-7.17 24.13,24.13 0 0 1 13.48,0.61 c 9.49,3.15 -1.2,14.44 -1.2,14.44 0,0 -7.11,7 -13.74,2.11 a 10.33,10.33 0 0 1 -3.87,-6 15.21,15.21 0 0 1 -0.45,-3.99 z"
     fill="#0466c8"
     id="path145"
     style="fill:#0063b2;fill-opacity:1" />
  <path
     d="m 932.29331,298.35347 a 7.67,7.67 0 0 0 -5.79,-7.17 24.09,24.09 0 0 0 -13.47,0.61 c -9.49,3.15 1.2,14.44 1.2,14.44 0,0 7.1,7 13.74,2.11 a 10.33,10.33 0 0 0 3.87,-6 15.21,15.21 0 0 0 0.45,-3.99 z"
     fill="#0466c8"
     id="path147"
     style="fill:#0063b2;fill-opacity:1" />
  <polygon
     points="910.5,291.33 927.83,291.33 927.83,290.76 910.5,290.85 "
     fill="#0466c8"
     id="polygon149"
     style="fill:#0063b2;fill-opacity:1"
     transform="translate(-12.906692,0.04346784)" />
  <path
     d="m 903.12331,295.90347 h 0.55 v -1.59 c 0,0 1.76,-1.36 4.68,0 v 1.43 h 1 v -0.94 h -0.49 c 0,0 0.2,-1.92 -3.06,-1.62 0,0 -2.62,-0.24 -2.56,1.41 h -0.6 z"
     fill="#0466c8"
     id="path151"
     style="fill:#0063b2;fill-opacity:1" />
  <path
     id="rect153"
     style="fill:#535461"
     d="m 114.07634,448.09914 c -14.491772,64.11292 18.93001,83.55222 -3.84303,137.03433 h -5.68 c 12.01545,-56.41725 -17.683724,-74.50169 9.52303,-137.03433 z"
     sodipodi:nodetypes="cccc" />
  <path
     d="m 145.93331,584.74347 -0.36,5.76 -0.5,8.13 -0.21,3.39 -0.5,8.14 -0.22,3.39 -0.5,8.13 -5.73,92.47 a 15.66,15.66 0 0 1 -15.63,14.7 H 92.503308 a 15.65,15.65 0 0 1 -15.62,-14.7 l -5.76,-92.47 -0.5,-8.13 -0.21,-3.39 -0.49,-8.16 -0.21,-3.39 -0.5,-8.13 -0.36,-5.76 a 8.11,8.11 0 0 1 8.1,-8.61 h 60.890002 a 8.1,8.1 0 0 1 8.09,8.63 z"
     fill="#3f3d56"
     id="path155" />
  <polygon
     points="157.98,598.59 82.61,598.59 82.11,590.46 158.48,590.46 "
     fill="#9d9cb5"
     id="polygon157"
     transform="translate(-12.906692,0.04346784)" />
  <polygon
     points="157.27,610.12 83.33,610.12 82.82,601.98 157.77,601.98 "
     fill="#9d9cb5"
     id="polygon159"
     transform="translate(-12.906692,0.04346784)" />
  <polygon
     points="156.55,621.64 84.05,621.64 83.54,613.51 157.05,613.51 "
     fill="#9d9cb5"
     id="polygon161"
     transform="translate(-12.906692,0.04346784)" />
  <path
     d="m 71.139297,518.59865 c 26.196561,18.95053 37.109153,48.59983 37.109153,48.59983 0,0 -31.573665,-1.08492 -57.809817,-20.03545 -26.236151,-18.95053 -37.109147,-48.59984 -37.109147,-48.59984 0,0 31.605337,1.08492 57.809811,20.03546 z"
     fill="#0466c8"
     id="path163"
     style="fill:#6ecf8e;fill-opacity:1;stroke-width:0.791915" />
  <path
     d="m 14.985102,499.71749 c 0,0 32.085678,9.42439 51.512177,34.56865 13.250422,17.15038 44.213671,34.61323 44.213671,34.61323"
     fill="none"
     stroke="#535461"
     stroke-miterlimit="10"
     stroke-width="1.58383"
     id="path165"
     sodipodi:nodetypes="csc"
     style="stroke-width:1;stroke-linecap:round;stroke-miterlimit:10;stroke-dasharray:none" />
  <path
     d="m 81.883308,457.00347 c 18,13 25.510002,33.4 25.510002,33.4 0,0 -21.700002,-0.74 -39.710002,-13.77 -18.01,-13.03 -25.5,-33.4 -25.5,-33.4 0,0 21.7,0.69 39.7,13.77 z"
     fill="#0466c8"
     id="path167"
     style="fill:#6ecf8e;fill-opacity:1" />
  <path
     d="m 44.32113,444.9326 c 0,0 17.661318,6.5724 27.602178,21.10087 7.12617,10.41483 35.470002,24.32 35.470002,24.32"
     fill="none"
     stroke="#535461"
     stroke-miterlimit="10"
     stroke-width="2"
     id="path169"
     sodipodi:nodetypes="csc"
     style="stroke-width:1;stroke-linecap:round;stroke-miterlimit:10;stroke-dasharray:none" />
  <path
     d="m 142.90817,485.47559 c -20.69,22.73 -25.06,52.43 -25.06,52.43 0,0 29.16,-7.15 49.84,-29.88 20.68,-22.73 25.06,-52.44 25.06,-52.44 0,0 -29.16,7.15 -49.84,29.89 z"
     fill="#0466c8"
     id="path171"
     style="fill:#6ecf8e;fill-opacity:1" />
  <path
     d="m 190.90187,457.52906 c 0,0 -16.81204,11.17327 -31.9437,37.41653 -11.86756,20.58223 -44.68303,45.74849 -44.68303,45.74849"
     fill="none"
     stroke="#535461"
     stroke-miterlimit="10"
     stroke-width="2"
     id="path173"
     sodipodi:nodetypes="csc"
     style="stroke-width:1;stroke-linecap:round;stroke-miterlimit:10;stroke-dasharray:none" />
</svg>
